<svg width="20" height="6" viewBox="0 0 20 6" fill="none" xmlns="http://www.w3.org/2000/svg">
<path d="M12.2 3.0008C12.2 2.71177 12.143 2.42556 12.0324 2.15852C11.9218 1.89148 11.7597 1.64884 11.5553 1.44446C11.3509 1.24008 11.1083 1.07796 10.8412 0.967346C10.5742 0.856735 10.288 0.799805 9.99895 0.799805C9.70991 0.799805 9.4237 0.856735 9.15666 0.967345C8.88963 1.07796 8.64699 1.24008 8.44261 1.44446C8.23823 1.64884 8.0761 1.89148 7.96549 2.15852C7.85488 2.42556 7.79795 2.71177 7.79795 3.0008C7.79808 3.58455 8.0301 4.14433 8.44296 4.557C8.85582 4.96967 9.41571 5.20144 9.99945 5.2013C10.5832 5.20117 11.143 4.96915 11.5556 4.55629C11.9683 4.14343 12.2001 3.58355 12.2 2.9998L12.2 3.0008ZM14.8 3.0008C14.8001 3.28971 14.8571 3.57577 14.9678 3.84263C15.0785 4.1095 15.2406 4.35195 15.445 4.55615C15.6494 4.76034 15.892 4.92228 16.159 5.03272C16.4259 5.14316 16.712 5.19994 17.001 5.1998C17.2899 5.19967 17.5759 5.14264 17.8428 5.03196C18.1096 4.92128 18.3521 4.75911 18.5563 4.55473C18.7605 4.35035 18.9224 4.10775 19.0329 3.84078C19.1433 3.57382 19.2001 3.28771 19.2 2.9988C19.1997 2.41533 18.9676 1.85586 18.5549 1.44346C18.1421 1.03107 17.5824 0.79954 16.999 0.799805C16.4155 0.80007 15.856 1.03211 15.4436 1.44488C15.0312 1.85764 14.7997 2.41733 14.8 3.0008ZM5.19995 3.0008C5.19995 2.41706 4.96806 1.85723 4.55529 1.44446C4.14253 1.03169 3.58269 0.799804 2.99895 0.799804C2.41521 0.799804 1.85538 1.03169 1.44261 1.44446C1.02984 1.85723 0.797951 2.41706 0.797951 3.0008C0.797951 3.58455 1.02984 4.14438 1.44261 4.55715C1.85538 4.96991 2.41521 5.2018 2.99895 5.2018C3.58269 5.2018 4.14253 4.96991 4.55529 4.55715C4.96806 4.14438 5.19995 3.58455 5.19995 3.0008Z" fill="black"/>
</svg>
